<?xml version="1.0" encoding="UTF-8"?>
<svg id="Capa_1" data-name="Capa 1" xmlns="http://www.w3.org/2000/svg" viewBox="0 0 291.22 576.46">
  <defs>
    <style>
      .cls-1 {
        stroke-linecap: round;
      }

      .cls-1, .cls-2 {
        fill: none;
        stroke: #fff;
        stroke-miterlimit: 10;
        stroke-width: 25.51px;
      }
    </style>
  </defs>
  <path class="cls-2" d="m170.05,77.17V24.48c0-6.47-5.25-11.72-11.72-11.72h-22.56c-6.47,0-11.72,5.25-11.72,11.72v51.98c0,4.83-3.22,9.08-7.88,10.34-48.45,13.03-84.12,57.26-84.13,109.83v331.01c0,19.93,16.15,36.08,36.08,36.08h155.31c19.93,0,36.08-16.15,36.08-36.08V196.61c0-51.72-34.53-95.37-81.79-109.17-4.55-1.33-7.66-5.53-7.66-10.27Z"/>
  <line class="cls-1" x1="181.55" y1="47.26" x2="112.54" y2="47.26"/>
  <line class="cls-1" x1="12.87" y1="237.2" x2="278.47" y2="237.2"/>
  <line class="cls-1" x1="278.47" y1="423.68" x2="12.76" y2="423.68"/>
</svg>