<?xml version="1.0" encoding="utf-8"?>
<!-- Generator: Adobe Illustrator 28.0.0, SVG Export Plug-In . SVG Version: 6.00 Build 0)  -->
<svg version="1.1" id="Capa_1" xmlns="http://www.w3.org/2000/svg" xmlns:xlink="http://www.w3.org/1999/xlink" x="0px" y="0px"
	 viewBox="0 0 595.28 525.45" style="enable-background:new 0 0 595.28 525.45;" xml:space="preserve">
<style type="text/css">
	.st0{fill:#004D7C;}
</style>
<g>
	<path class="st0" d="M337.59,275.91c-2.95-1.47-7.52-2.8-12.24-1.03c-6.93,2.51-11.21,10.32-12.83,16.81
		c-1.62,6.64-1.77,13.71-1.92,21.09l-0.15,6.49c-0.88,24.78-5.01,56.34-17.55,85.09c19.76-15.93,39.52-34.51,58.99-55.75
		c2.36-16.96,3.1-46.01-0.74-57.07C348.95,284.9,343.64,278.86,337.59,275.91z"/>
	<path class="st0" d="M541.55,231.08c-9.88-78.31-47.34-135.23-105.3-160.16c-21.68-9.29-45.13-13.86-69.61-13.86
		c-49.4,0-102.49,18.58-151.16,54.42c-130.96,96-174.46,192.75-172.25,258.96c15.63,5.31,44.68,17.11,67.69,38.34
		c26.55,24.78,29.94,48.37,30.08,59.58c29.79,0.59,63.12-8.7,97.92-27.73c8.11-4.42,16.07-9.14,24.18-14.6
		c24.92-31.71,31.56-75.36,32.59-107.36l0.15-6.05c0.15-8.11,0.3-16.22,2.36-24.48c3.39-13.27,11.65-23.3,22.12-27.14
		c7.37-2.65,15.78-2.21,23.6,1.62c9.73,4.72,17.7,13.71,21.24,24.18c3.24,9.73,3.83,27.43,3.1,43.36
		c8.26-9.73,16.52-20.06,24.78-30.82c-5.9-18.88-13.27-37.9-24.18-56.34c-2.36-4.13-0.88-9.44,3.1-11.8
		c4.13-2.36,9.44-1.03,11.8,3.1c20.2,34.21,29.2,70.49,37.31,102.35c7.08,28.32,13.86,55.15,26.99,76.83
		c6.64,10.62,16.52,18.88,28.02,23.15c20.06,7.52,35.69,6.19,47.78-3.98c29.49-25.22,36.72-106.03,17.84-200.86L541.55,231.08z
		 M252.67,212.71c-12.88,0-23.31-10.44-23.31-23.31c0-12.88,10.44-23.31,23.31-23.31c12.88,0,23.31,10.44,23.31,23.31
		C275.98,202.28,265.54,212.71,252.67,212.71z"/>
	<path class="st0" d="M579.34,225.29c-11.88-91.74-57.3-159.02-128-189.56C373.43,2.29,276.82,19.1,192.85,80.7
		c-40.93,30.01-73.94,60.44-100.27,90.41c-3.94-20.37-21.87-35.81-43.36-35.81C24.83,135.29,5,155.12,5,179.51
		s19.84,44.21,44.22,44.21c1.32,0,2.57-0.28,3.87-0.39C9.36,291.27-1.2,353.86,8.36,399.68c10.86,52.74,48.14,91.25,99.8,103.03
		c11.55,2.59,23.46,3.9,35.4,3.9c35.8,0,74.05-10.97,113.67-32.62c44.6-24.3,88.74-61.02,131.57-109.45
		c6.49,24.4,13.85,47.53,26.86,68.81c10.98,17.96,27.71,31.83,47.11,39.06c42.05,15.7,69.83,2.81,85.76-10.76
		C609.97,409.21,587.88,268.44,579.34,225.29z M49.17,202.88c-12.88,0-23.31-10.44-23.31-23.31c0-12.88,10.44-23.31,23.31-23.31
		c12.88,0,23.31,10.44,23.31,23.31C72.48,192.44,62.04,202.88,49.17,202.88z M534.91,445.8c-16.96,14.45-38.79,16.81-64.89,7.08
		c-15.04-5.6-28.02-16.37-36.57-30.38c-14.6-23.89-21.68-51.91-29.2-81.55c-1.77-7.08-3.54-14.01-5.31-21.09
		c-49.26,62.09-100.28,107.8-151.75,135.82c-36.43,19.91-71.67,30.09-103.67,30.09c-10.62,0-20.94-1.18-30.82-3.39
		c-43.95-10.03-74.62-41.74-83.91-86.86C14.03,324.87,52.67,209.4,205.16,97.61c78.01-57.22,166.79-73.15,237.87-42.62
		c63.86,27.58,104.85,89.22,115.62,173.72C574.88,310.12,577.09,409.81,534.91,445.8z"/>
</g>
</svg>
