<?xml version="1.0" encoding="utf-8"?>
<!-- Generator: Adobe Illustrator 28.0.0, SVG Export Plug-In . SVG Version: 6.00 Build 0)  -->
<svg version="1.1" id="Capa_1" xmlns="http://www.w3.org/2000/svg" xmlns:xlink="http://www.w3.org/1999/xlink" x="0px" y="0px"
	 viewBox="0 0 299 169" style="enable-background:new 0 0 299 169;" xml:space="preserve">
<style type="text/css">
	.st0{fill:#004D7C;}
</style>
<g>
	<path class="st0" d="M163.15,89c-1.01-0.5-2.57-0.96-4.18-0.35c-2.37,0.86-3.83,3.53-4.38,5.74c-0.55,2.27-0.6,4.69-0.65,7.2
		l-0.05,2.22c-0.3,8.46-1.71,19.25-6,29.07c6.75-5.44,13.5-11.79,20.15-19.04c0.81-5.79,1.06-15.72-0.25-19.5
		C167.03,92.08,165.21,90.01,163.15,89z"/>
	<path class="st0" d="M232.82,73.69c-3.38-26.75-16.17-46.2-35.97-54.71c-7.41-3.17-15.42-4.74-23.78-4.74
		c-16.88,0-35.01,6.35-51.64,18.59c-44.74,32.8-59.6,65.85-58.84,88.47c5.34,1.81,15.26,5.84,23.12,13.1
		c9.07,8.46,10.23,16.52,10.28,20.35c10.18,0.2,21.56-2.97,33.45-9.47c2.77-1.51,5.49-3.12,8.26-4.99
		c8.51-10.83,10.78-25.74,11.13-36.68l0.05-2.07c0.05-2.77,0.1-5.54,0.81-8.36c1.16-4.53,3.98-7.96,7.56-9.27
		c2.52-0.91,5.39-0.76,8.06,0.55c3.32,1.61,6.05,4.69,7.25,8.26c1.11,3.33,1.31,9.37,1.06,14.81c2.82-3.32,5.64-6.85,8.46-10.53
		c-2.02-6.45-4.53-12.95-8.26-19.25c-0.81-1.41-0.3-3.22,1.06-4.03c1.41-0.81,3.22-0.35,4.03,1.06c6.9,11.69,9.98,24.08,12.75,34.96
		c2.42,9.67,4.74,18.84,9.22,26.25c2.27,3.63,5.64,6.45,9.57,7.91c6.85,2.57,12.19,2.12,16.32-1.36
		c10.08-8.62,12.54-36.22,6.1-68.62L232.82,73.69z M134.14,67.42c-4.4,0-7.96-3.57-7.96-7.96c0-4.4,3.57-7.96,7.96-7.96
		c4.4,0,7.96,3.57,7.96,7.96C142.1,63.85,138.54,67.42,134.14,67.42z"/>
	<path class="st0" d="M245.73,71.71c-4.06-31.34-19.58-54.33-43.73-64.76c-26.61-11.42-59.62-5.68-88.3,15.36
		C99.72,32.57,88.44,42.96,79.45,53.2c-1.35-6.96-7.47-12.23-14.81-12.23c-8.33,0-15.11,6.77-15.11,15.1s6.78,15.1,15.11,15.1
		c0.45,0,0.88-0.09,1.32-0.13c-14.94,23.21-18.55,44.59-15.28,60.25c3.71,18.02,16.45,31.17,34.1,35.2
		c3.95,0.89,8.01,1.33,12.09,1.33c12.23,0,25.3-3.75,38.83-11.14c15.24-8.3,30.31-20.85,44.95-37.39
		c2.22,8.33,4.73,16.24,9.18,23.51c3.75,6.14,9.47,10.87,16.09,13.34c14.37,5.36,23.86,0.96,29.3-3.68
		C256.2,134.54,248.65,86.45,245.73,71.71z M64.62,64.05c-4.4,0-7.96-3.57-7.96-7.96c0-4.4,3.57-7.96,7.96-7.96
		c4.4,0,7.96,3.57,7.96,7.96C72.58,60.49,69.02,64.05,64.62,64.05z M230.56,147.04c-5.79,4.94-13.25,5.74-22.17,2.42
		c-5.14-1.91-9.57-5.59-12.49-10.38c-4.99-8.16-7.41-17.73-9.98-27.86c-0.6-2.42-1.21-4.79-1.81-7.2
		c-16.83,21.21-34.26,36.83-51.84,46.4c-12.44,6.8-24.48,10.28-35.42,10.28c-3.63,0-7.15-0.4-10.53-1.16
		c-15.01-3.43-25.49-14.26-28.67-29.67c-5.04-24.13,8.16-63.58,60.25-101.77c26.65-19.55,56.98-24.99,81.26-14.56
		c21.81,9.42,35.82,30.48,39.5,59.35C244.21,100.69,244.97,134.75,230.56,147.04z"/>
</g>
</svg>
